<?xml version="1.0" encoding="utf-8"?>
<!-- Generator: Adobe Illustrator 21.0.0, SVG Export Plug-In . SVG Version: 6.00 Build 0)  -->
<svg version="1.1" id="Layer_1" xmlns="http://www.w3.org/2000/svg" xmlns:xlink="http://www.w3.org/1999/xlink" x="0px" y="0px"
	 viewBox="0 0 1143.4 1043.6" style="enable-background:new 0 0 1143.4 1043.6;" xml:space="preserve">
<style type="text/css">
	.st0{fill:#FFFFFF;}
</style>
<path class="st0" d="M1133.9,230.5c-1.4-0.8-3-1.5-4.5-2.1c-15.8-5.8-32-11-47.4-17.6c-6.6-2.9-13.1-4.4-20.1-4.9
	c-1.6-0.1-3.3-0.3-4.9-0.4c0.1-0.3,0.1-0.7,0.2-1c25.8-5.1,51.5-10.2,76.5-15.1c3.1-3.6,0.5-8.3,5.5-10.8c5.4-2.7,5.3-7.3,0.5-10.8
	c-6.4-4.6-12.8-9.7-20-12.8c-11.8-5-21.6-12.7-32.1-19.6c-5.7-3.8-12.4-5.9-18.6-9c-4.7-2.3-9.3-4.8-13.9-7.4
	c-2.6-1.4-5-3.3-7.7-4.5c-18.9-9-37.7-18-57.8-24.1c-13-4-25.8-8.8-39-11.6c-15.5-3.3-31.4-4.5-46.9-7.3
	c-23.5-4.2-46.7-10.3-70.6-11.6c-9.6-0.5-19.1-1.4-28.6-2.8c-10.8-1.6-21.7-3.4-32.3-6.2c-10.9-2.8-22.7,0.1-33-5.8
	c-0.9-0.5-2.5,0.4-3.8,0.4c-3,0.2-6,0.6-8.9,0.3c-19.1-2.2-38.1-4.6-57.2-7c-17-2.1-34.1-4.4-51.1-6.5c-10.5-1.3-21-2.8-31.5-3.8
	c-8.1-0.8-16.2-4.3-24.6,0.4c-2.2-10.8-10.5-13.4-18.8-16.2c-4.9-1.7-9.7-1.3-14.5,0.6c-4.4,1.8-8.9,3.3-12.7,4.7
	c-5.5-5.5-9.3-11.1-16.6-10.3c-6.7,0.8-12.4,3.6-15.1,11.5c-4.1-8.5-8.3-14.5-16.1-17.4c-8.9-3.4-13.5-1.5-16.6,7.7
	c-0.7,2.1-1.4,4.1-2.3,6.7c-1.5-1.8-2.4-2.7-3.1-3.8c-4.3-6.5-10.1-11.6-18.1-9.7c-8.2,1.9-15.4,6.2-17.1,16c-0.9,5.2-4,7.1-9.4,6
	c-2.3-0.5-5.1,0.5-7.5,1.1c-5.1,1.4-10.1,3.6-15.3,4.4c-38,6.2-74.5,18.2-110.6,31c-15.6,5.5-30.4,13.1-45.5,20.1
	c-12,5.5-23.7,11.8-35.8,17.1c-13.5,6-27.5,11-41,17.1c-11.4,5.2-22.1,12.3-33.8,16.8c-15.7,6-29.3,15.6-43,24.6
	c-18.5,12.1-35.4,26.6-53.7,40.6c-5.2,5.3-11.5,15.8-14.1,27.8c-0.8,5.2-1.5,10.5-1.3,15.7c0.6,14.2,8.7,25.3,18.3,34.1
	c10.9,10,23.2,19,36.2,26.2c26,14.6,52.9,27.5,79.4,41.3c10.3,5.4,20.1,11.7,30.4,17c19.8,10.2,39.8,20,59.7,29.9
	c10.7,5.4,21.8,9.5,33.8,11.3c13.8,2.1,27.6,4.3,40.5,9.9c9.7,4.2,19.6,8.1,29.6,11.6c9.7,3.4,19.4,6.1,30,6.2
	c13.2,0.2,26.5,1.9,39.7,3.2c10.9,1.1,21.7,3.1,32.6,3.7c11.2,0.7,22.6,0.1,35.3,0.1c4.7,13.8,9.8,27.8,9.1,43.1
	c-0.3,7.3-0.7,14.6-0.3,21.8c0.8,16.3,2.1,32.5,2.9,48.7c1.1,23.2,1.9,46.4,2.6,69.7c0.3,12-0.5,23.9,0,35.9
	c0.7,17.9,2.6,35.8,3.2,53.8c1.1,35.2,1.7,70.4,2.3,105.6c0.2,11.6-1,23.4,0.4,34.9c1.9,15.5,4.2,30.9,4.2,46.6
	c0,4.3,0.2,8.7,0.6,13c2.5,27,1.7,53.8-1.9,80.6c-2.3,16.8-0.8,33.2,3.2,49.4c0.4,1.7,1,3.4,1.7,5h12.1c-4.9-10.2-4.6-21.9-6.2-33.1
	c-1.1-7.4-0.4-15.2,0.2-22.8c0.9-12.5,3.7-25.1,3.4-37.6c-0.8-31.9-1.7-63.7-5.5-95.5c-2.4-20.7-2.5-41.7-2.9-62.5
	c-0.4-18.9,0.5-37.9,0.1-56.9c-0.5-19.6-2.1-39.2-3-58.8c-0.8-17-1.5-33.9-2.1-50.9c-0.1-3.7,0.1-7.3,0-11
	c-0.4-14.9-0.8-29.9-1.2-44.8c-0.7-25.5-1.8-51.1-2.2-76.6c-0.2-16.9,0.2-33.8-6.1-50c-1-2.6-0.7-5.7-1.1-9.5c24.3,0,48,0,71.6,0
	c0.4,2.1,0.8,3.1,0.7,4c-3,20.2-0.3,40.3,0.6,60.5c0.7,13.9,0.5,27.9,0.7,41.8c0.3,21.3,0.3,42.5,1.1,63.8
	c0.6,15.9,2.9,31.8,3.6,47.7c1,23.9,1.3,47.9,1.8,71.8c0.1,4-0.2,8,0.1,12c1.4,16.9,3,33.7,4.4,50.6c1,12.6,1.3,25.3,2.8,37.8
	c4.3,37.7,5.8,75.6,5,113.5c-0.4,21.2-1.1,42.4-1.6,63.7c-0.2,9.6-0.1,19.3-0.4,29c-0.2,4.6-1,9.2-1.4,13.8h12.2
	c0.3-2.7,0-5.5,0-8.2c0.9-34.2,2.7-68.5,2.4-102.7c-0.2-27.2-2.9-54.4-4.6-81.6c-0.6-10-1.5-19.9-2.1-29.9
	c-1.8-27.5-3.6-55.1-5.1-82.6c-1.2-22.9-2-45.8-2.9-68.7c-0.4-10.3,0-20.6-0.7-30.8c-0.8-12.2-2.9-24.4-3.6-36.6
	c-0.7-13.3-0.4-26.6-0.4-39.9c0-17.3,0.4-34.6,0.1-51.9c-0.3-19.6-1.4-39.2-1.8-58.8c-0.1-4.6,0.8-9.2,1.3-13.8c0.4-4,2.7-5.7,6.6-6
	c7.3-0.6,14.5-1.5,21.8-2.2c16.9-1.5,33.8-2.9,50.7-4.4c19.2-1.7,38.4-3.8,57.6-5.2c25.3-1.8,49.8-7.6,74.2-14.3
	c5.8-1.6,11.5-3.4,17.3-4.5c13.7-2.7,27.5-4.9,41.3-7.6c6.2-1.2,12.4-2.6,18.1-5.1c13.6-6,27.4-11.7,38.1-22.7
	c1.8-1.8,4.4-2.8,6.7-4.2c7.4-4.5,14.5-9.4,22.2-13.5c16.7-8.8,33.4-17.8,50.5-25.6c15.7-7.1,31.9-12.9,48.1-19
	c18-6.8,34.1-17.4,52.3-23.9c22.1-7.8,43.4-18,65.1-27c6.4-2.6,8.8-8.2,9.8-13.9C1144.1,233.5,1137.8,232.7,1133.9,230.5z
	 M1087.2,223.5c-11.7,5.3-23.5,7.8-35.5,9.2c-11.2,1.3-22.5,2.5-32.8,7.5c-15.2,7.4-30,15.6-45.2,23c-11,5.4-22.3,10.2-33.6,14.9
	c-5.1,2.1-10.6,4-16.1,4.9c-22.9,3.6-45.6,7.2-68.6-1.2c-18.2-6.6-38.2-7.7-56.4-15c-5.5-2.2-10.8-5-16.5-6.7
	c-16.6-4.9-32.8-2.9-48.5,3.7c-5.9,2.5-11.6,5.6-18.3,8.9c-1-17.1-4-33.4-0.3-50.2c12-4,23.6-5.1,36.3-2.8
	c9.2,1.7,19.2-0.1,28.6-1.5c9.8-1.4,19.5-3.9,29.1-6.5c9.2-2.6,18.3-6,27.3-9.1c15.7-5.4,31.5-9.9,48.4-8.5
	c12.9,1.1,25.8,2.1,38.7,3.2c1.3,0.1,2.8,0,3.9,0.5c14.7,6.1,30.6,5.8,45.9,8.7c6.2,1.2,12.6,1,18.9,1.5c12.2,1,24.5,2,36.7,3.1
	c1.8,0.2,3.6,1.2,5.3,1.8c0.1,0.6,0.2,1.2,0.3,1.8c-5.6,1.6-11.1,3.3-16.7,4.7c-9.8,2.3-19.5,3.3-29.3-0.8
	c-3.5-1.5-7.7-1.5-11.7-2.1c-3.9-0.6-8.1-0.5-11.8-1.8c-17.2-5.9-35.1-7.3-52.9-9.3c-9.5-1.1-19.2-0.1-28.8,0
	c-5.9,0-11.9-0.6-17.8,0.1c-21.6,2.4-42,8.7-61.5,18.3c-9.7,4.8-20,7.5-30.8,6.8c-15.7-1.1-30.2,3.8-44.6,8.8
	c-6.9,2.4-8.8,5.7-8.9,14.8c3.6-1.2,7.2-1.6,9.9-3.3c10.4-6.9,22.1-9.4,34-8.9c15.7,0.7,30.6-2.8,44.4-9.2
	c14.5-6.8,29.4-11.9,44.9-15.7c5.1-1.2,10.5-2,15.8-2.2c26.6-0.9,53.1,0.7,79.3,6.1c15.6,3.2,31,7.3,46.5,10.7
	c3.5,0.8,7.4,1.2,10.9,0.6c11.8-2,23.5-4.4,34.1-10.1c2.6-1.4,4.3-4.2,7.4-7.3C1059.7,214.8,1073.9,214.8,1087.2,223.5z M715.5,210
	c0.6-8.2,1.1-16.5,1.8-26.2c11.8,2.2,22.3,3.7,32.4,6.3c12.4,3.2,25.2,2.8,36.3-1.3c19.2-7,39.1-10.3,58.6-15.6
	c1.9-0.5,4.1-0.5,5.8-1.3c16.5-7.6,33.9-5.2,51.1-4c7.9,0.5,15.9,1.5,23.8,2.2c18.6,1.7,36.6,5.9,53.9,13.2c4.2,1.8,9,2.2,13.5,3.3
	c10.5,2.6,21.1,5.2,31.6,7.8c-0.1,0.8-0.2,1.6-0.4,2.4c-9.3,2.1-18.8,1.7-28.4,1.1c-3.9-0.2-7.8,0.3-11.7,0.3
	c-2.6,0-5.4,0.3-7.9-0.3c-15.9-3.3-31.7-7.2-47.7-10.2c-17-3.2-34.4-6-51.4-3.9c-17.5,2.1-35.3,4.1-51.5,13.5
	c-7.9,4.6-18.5,4.7-27.9,6.7c-8.4,1.8-16.9,3.9-25.4,5.1c-5.8,0.9-12.3,2-17.7,0.4c-12.3-3.5-24.1-3.6-36,0.8
	C717.8,210.6,717.1,210.3,715.5,210z M1089.3,187c-0.8-2.5-1-5.5-2.6-7.3c-1.6-1.9-4.5-2.8-7-3.6c-10-3.4-20.2-6.6-30.2-10
	c-3.1-1-6.1-2.4-9.2-3.7c-8.5-3.6-17-7.4-25.6-10.7c-11.4-4.3-22.8-9.1-34.6-12.1c-14.7-3.8-29.7-7.3-44.7-8.5
	c-10.1-0.8-20.2-1.5-30.3-2.7c-1.3-0.2-2.7-0.6-3.9-0.3c-17.7,4-35.4,8.4-53.2,12.2c-23.3,4.9-46,13.2-70.3,12.2
	c-10.9-0.5-21.8-0.9-32.7-1.9c-8.6-0.8-10.3-2.1-16.8-8.4c-7.2,7-6.9,9.8-0.2,14.7c7.3,5.4,15.8,4.8,23.8,5.1
	c16.6,0.7,33.2,0.5,49.8,0c5.9-0.2,11.7-2.3,17.4-3.8c17.7-4.6,35.3-9.4,53.1-13.8c16.2-4,32.6-6.1,49.4-3.3
	c6.8,1.2,13.9,0.5,20.9,0.7c14.5,0.3,28.1,4.8,41.6,9.2c14.2,4.6,28.5,9.3,41.9,15.7c17.2,8.1,35.4,13.2,53.1,19.9
	c0.8,0.3,1.4,1,2.9,2.1c-8.4,4-16.7,3.5-24.7,4.7c-0.6,0.1-1.6,0-1.9-0.4c-5.2-6.8-13.2-4.8-20-6.5c-27-6.6-54-12.8-80.4-21.7
	c-14.4-4.8-29.7-6.4-45.1-5.7c-3.6,0.1-7.2-0.6-10.8-0.7c-11.5-0.4-23-0.8-34.6-1c-2.6,0-5.4,0.3-7.8,1.3
	c-13.9,5.7-28.5,8.7-43.3,10.8c-4.9,0.7-10,1.9-14.3,4.1c-17.2,9-34.8,9.7-53.2,4.9c-8.6-2.2-17.3-3.7-26.8-5.8
	c-0.2-16.6-0.9-33.3,3.6-50.4c7.5,2.3,14.7,4.3,21.7,6.8c13.9,4.9,28,4.4,42.2,2.5c5.5-0.7,11.2-0.9,16.7-1.8
	c5.2-0.8,10.2-2.8,15.4-3.3c12.1-1.2,24.4-1.5,36.5-2.7c7.9-0.7,15.7-2.1,23.5-3.6c12.6-2.4,25-5.2,37.6-7.4
	c3.2-0.6,6.7-0.2,9.8,0.6c20,4.6,40.1,9,59.9,14.5c9.2,2.5,17.8,7.3,26.6,11.2c6.3,2.8,12.4,6.3,18.8,8.8
	c24.2,9.1,46.7,21.7,69.7,33.6C1096.9,186.6,1096.9,186.6,1089.3,187z M744,58.4c16.6,2.3,33.1,4.9,49.7,7.3
	c3.3,0.5,6.6,0.3,9.9,0.6c3.5,0.3,6.9,1,10.3,1.4c-0.1,0.7-0.1,1.4-0.2,2.1c-12.1,3.6-24.5,3.9-36.8,1.8c-11.3-2-22.4-5.6-33.6-8.5
	c-1.9-0.5-3.7-1-5.7-1.5C738.6,57.4,741.7,58.1,744,58.4z M734.6,71.7c10.6,2.6,21.3,5.1,31.7,8.4c11.6,3.7,23.2,5.4,35.2,3
	c9.4-1.9,18.8-3.6,28.2-5.3c4-0.8,8.3-0.4,11-4.9c0.8-1.3,4.3-1.8,6.4-1.4c14.3,2.4,28.6,5,42.9,7.7c0.1,0,0.2,0.5,0.6,2
	c-7.6,1.7-15.1,4.2-22.7,4.8c-12.4,1-24.8,0.5-37.3,1.1c-11.1,0.6-22.2,2.1-33.3,2.6c-7.2,0.4-14.8,1-21.7-0.7
	c-14.1-3.5-27.8-8.4-41.6-12.8c-1.4-0.4-2.5-1.4-5.5-3.1C731.9,72.3,733.4,71.4,734.6,71.7z M727.7,86.6
	c14.7,3.9,28.3,6.9,41.4,11.4c10.5,3.6,21.1,3.8,31.5,2c16.8-2.9,33.7-3,50.5-2.6c14.2,0.3,27.4-3.8,41.1-5.9
	c3.2-0.5,6.5-1.2,9.6-0.7c11.7,1.7,23.4,5.3,35.1,5.4c16.2,0,31.7,3.3,47,7.2c12.4,3.2,24.4,8,36.7,11.8c10.5,3.3,20.6,7.1,29.9,13
	c5.8,3.7,12,6.9,18,10.4c19.2,11.1,38.3,22.3,57.4,33.5c1.9,1.1,3.4,2.8,5.5,4.5c-7.5,4.9-13.1,3.8-20.3-0.5
	c-14.8-8.8-30.5-16.2-46.1-23.8c-20.7-10.2-41.7-20-62.5-30c-0.6-0.3-1.1-0.8-1.8-0.9c-16.3-4.5-32.5-9.1-48.8-13.4
	c-5.1-1.4-10.5-1.7-15.5-3.2c-14.2-4.2-28.1-2.5-42.1,1.3c-6,1.7-12.2,2.9-18.4,3.8c-14.7,2.2-29.4,4.3-44.2,6.2
	c-7.9,1-15.8,1.7-23.7,2.5c-13.1,1.3-26.1,3.1-39.2,3.9c-9.4,0.6-18.5-1.4-27-5.9c-2.9-1.5-6.2-2.2-9.4-3.3
	c-7.2-2.5-9.8-6.3-8.5-13.5C724.9,95.6,726.3,91.5,727.7,86.6z M529,28.8c2-8.3,7.2-10.9,14.6-6.6c5.7,3.4,9.7,8.3,9.6,15.2
	c-0.1,5.9-0.3,12-2,17.6c-3.1,10.4-7.2,20.6-11,30.8c-0.8,2.1-2,4-3.9,7.6c-8.6-9.4-10.9-19-11.1-29.5
	C525.1,52.1,526.2,40.4,529,28.8z M499.1,16.2c9.4,5.6,13.6,13.8,14.1,23.4c0.7,12.2,0,24.5-0.2,36.7c-0.1,6.5-3.6,11.3-8.3,15.2
	c-3.2,2.7-6.4,2-8.2-1.8c-1.3-2.6-1.9-5.6-2.5-8.5c-2.1-11.3-2.4-22.8-1.3-34.3c0.3-3.2-0.7-6.5-1-9.8
	C490.9,28.3,492.9,22.3,499.1,16.2z M462.4,10.5c6.4,2.3,10.4,6.4,11.9,11.9c2.7,9.9,5,19.9,6.7,30.1c2.5,14.6-2.8,27.2-11.5,40.1
	c-7.7-7.9-10.1-16.1-10.6-25.3c-0.6-11.3-1.7-22.5-2.3-33.7C456.3,25.5,458.7,18.1,462.4,10.5z M420.2,20.6c2.2-5.1,5.8-7,10.5-7.8
	c5.1-0.8,6.4,3.5,8.5,6.8c5.9,8.9,7.3,19.3,8.1,29.3c1.1,14.7,2.9,29.7-1.7,44.4c-1.4,4.4-3.5,7.6-9.8,10.2
	c-4.4-9.1-8.7-17.5-12.5-26.2c-2.1-4.8-4.7-9.9-4.8-15C418,48.5,414.2,34.5,420.2,20.6z M707.3,410c-22.7,2.6-45.6,4-68.4,6
	c-22.5,2-44.9,4.1-67.4,6.1c-2.9,0.2-5.9-0.3-8.8-0.6c-1.3-0.1-2.8-1-3.8-0.6c-12.3,5.1-25,1.9-37.5,2c-16.9,0.2-33.8,1.1-50.7,1.3
	c-22.9,0.3-45.8,1.1-68.7-2.8c-15-2.6-30.4-2.7-45.6-3.8c-13.7-0.9-26.4-5.4-38.9-10.5c-16.2-6.6-32.1-14.3-49.8-16.2
	c-18.5-1.9-35.3-8.6-51.5-17.1c-12-6.4-24.1-12.6-36-19.1c-21.3-11.6-42.4-23.5-63.8-34.9c-12.6-6.7-25.7-12.3-38.3-19.1
	c-14.2-7.7-28.3-15.8-42-24.4c-10.1-6.4-16-16.8-21.9-26.8c-7-11.8-4.1-24.4,2.2-34c6.3-9.5,17-16.2,26.1-23.7
	c9.7-8.1,19.7-15.7,29.6-23.5c0.5-0.4,1-0.9,1.5-1.3c12-6.9,23.9-14.2,36.2-20.6c15.3-7.9,31-15.1,46.7-22.2
	c9.3-4.2,19-7.5,28.5-11.5c13.1-5.5,26.2-11,39.2-16.9c15-6.9,29.4-15.5,44.8-21.1c21-7.7,41.6-16.5,63.7-21.8
	c21.2-5.1,42.9-8,63.8-14.5c2.1-0.7,4.5-0.4,6.8-0.6c1.6,9.3,2.9,18.1,4.5,26.8c3,15.8,9.6,30.3,18,43.9c5.2,8.4,12,8.4,20.6,2.9
	c4.2-2.7,7.1-7.6,11-12.2c4.7,1.4,9.1,9.2,15.8,4.1c4.6-3.5,8.3-8.1,12.7-12.6c-0.4-0.2,0.6,0.1,0.6,0.3c-0.6,6.6,2.3,10.7,8.6,12.5
	c6.5,1.8,14.9-0.6,18.9-5.7c1.4-1.8,2.6-3.7,4.4-6.2c2.3,2,4.1,3.8,6.2,5.3c2.9,2.1,5.7,4.6,9,5.9c7.3,2.9,12.3,0.9,15.1-6.6
	c5.1-13.6,10-27.4,14.2-41.3c1.6-5.2,1-11.1,1.4-16.8c6.1-1.3,55.8,5.5,79.8,9.3c26.5,4.1,53.2,6.4,80.4,9.5c-0.2,1.6,0,3.1-0.6,3.9
	c-5.7,7.9-7.2,17.2-8.2,26.3c-2.8,25.4-5.5,50.9-7.4,76.4c-1.9,26.8-3.3,53.8-4,80.7c-0.4,16.9,1.2,33.9,1.2,50.8
	c0,15.7,1.3,31.1,3.9,46.5c2.6,15.6,3.7,31.5,5.4,47.3c1.1,10.7,2.9,12,13.7,11.6c3.8-0.2,7.6,1,11.3,2.3
	C729.5,408.4,718.2,408.8,707.3,410z M771.2,396.2c-2.5-3.2-6.2-3.6-11.2-2.8c-5.3,0.9-11.1-0.9-16.6-2.1c-5.6-1.2-11-3.1-18.3-5.2
	c-0.4-2.7-1-7.4-1.7-12.5c9.2-1.2,16.9-2.1,24.8,0.5c11.3,3.7,22.8,7.2,34.2,10.4c5.7,1.6,11.6,2.6,17.6,5.4
	C790.7,392,781.4,394,771.2,396.2z M847.9,379.3c-2.2-6.5-6.9-6-12-5.5c-11.2,1.2-22.5,2.5-33.7,2.8c-5.8,0.1-11.7-1.7-17.4-3.2
	c-12.5-3.3-24.8-7.3-37.4-10.4c-4.7-1.1-9.9-0.4-14.8-0.5c-3.2-0.1-6.4,0-10.3,0c-1-5.5-1.8-10-2.6-14.3c11.4-5.6,22.6-9.2,34.8-6.4
	c4.1,1,8.5,1.6,12.1,3.6c12.9,7,26.2,13,40.4,16.8c8.6,2.3,17.7,2.9,26.5,4.1c3.3,0.5,6.6,1.2,9.9,1.2c5.9-0.1,11.8-0.5,17.7-1.1
	c3.9-0.4,7.7-1.2,11.8-1C866.1,372.6,856.9,374.9,847.9,379.3z M890.8,353.7c-0.8-1.3-1.8-3-2.4-4.1c-12.2,2.3-24.2,4.6-36.1,6.9
	c-0.6,0.1-1.4,0.2-2,0.1c-14.1-3.3-29-0.6-42.8-6.2c-5.7-2.4-11.9-3.6-17.7-5.8c-3.9-1.5-7.5-3.7-11.2-5.7
	c-17.5-9.5-35.6-11.6-54.4-4.6c-1.2,0.5-2.5,0.7-4.7,1.3c-1-4.3-1.9-8.3-3-13.4c4.5-1.1,8.3-2.1,12-3c7.1-1.7,14.1-3.2,21.2-4.9
	c15.5-3.9,29.9,0.2,43.3,7.3c17.5,9.2,36,15,54.8,20.3c3.4,1,7.2,0.7,10.9,0.5c17.2-0.7,34.4-1.6,54-2.6
	C904.4,344.9,898.4,348.8,890.8,353.7z M1075.4,266.3c-15.4,5.3-30,12.4-44.4,19.9c-18.9,9.9-38.8,17-58.8,24.3
	c-8,2.9-15.9,6.5-23.8,9.7c-0.6,0.3-1.3,0.6-1.9,0.6c-16.1-0.4-30.6,7.8-46.7,7.9c-15.6,0.1-31.1,1.5-46.7,2.4c-0.7,0-1.3-0.1-2-0.3
	c-14.9-4.3-30.5-6.7-44.2-14.5c-11.4-6.4-23.3-11-36.2-12.9c-8.6-1.3-16.9-1.8-25.6,0.9c-8.8,2.7-18.1,4-28.5,6.1
	c-0.4-4.7-0.6-8.3-0.9-12.2c22.4-7.2,44.3-13.7,67.3-6.4c17,5.4,33.8,11.5,50.6,17.5c12.5,4.4,25.4,9.8,38.5,8.3
	c20.5-2.5,41.5-2.2,61-11.5c10-4.8,21.6-6.5,32.3-9.8c6.2-1.9,12.2-4.5,18.4-6.6c19-6.7,38-13.6,57.2-20
	c11.6-3.8,23.5-6.7,35.2-10.1c8.1-2.3,16.3-4.7,24.4-7.1c0.2,0.7,0.5,1.3,0.7,2C1092.7,258.5,1084.3,263.3,1075.4,266.3z
	 M1125.2,240.7c-12.4-1.2-24.6,0.5-36.6,3.4c-11.2,2.7-22.1,6.7-33.1,10.1c-4.1,1.3-8.2,2.5-12.3,3.8c-10.7,3.6-21.4,7.2-32,10.8
	c-13.1,4.5-26.6,8.4-39.3,13.9c-14.7,6.4-30.2,9.6-45.4,14.2c-1.6,0.5-3.4,0.7-4.7,1.6c-9.5,6.1-20.1,5.9-30.8,6.1
	c-7,0.1-13.9,1.2-20.9,1.1c-5.9-0.1-12.1-0.3-17.7-1.9c-10.8-3.2-21.2-7.6-31.9-11.2c-7.2-2.4-14.8-3.6-21.9-6.2
	c-12.9-4.7-26-7.7-39.6-8.7c-8.7-0.6-17,0.5-25.2,4c-5.5,2.3-11.7,3.1-17.6,4.5c0-0.8-0.1-1.6-0.1-2.4c8.7-3.8,17.2-8.3,26.2-11.2
	c12.9-4.1,26.1-7.1,39.5-0.8c17,8,35.3,11.3,53.6,14.8c7.8,1.5,15.3,4.3,22.9,6.8c12.2,4,24.4,4.8,37.3,4c26-1.6,50-9.8,73.4-19.9
	c13.7-5.9,26.9-13.1,39.5-21c15.2-9.5,31.9-11.9,49.2-13.8c8.4-0.9,16.8-3.3,24.9-6c20.2-6.7,24.3-6.7,45.1,2.7
	C1126.6,240.1,1125.8,240.8,1125.2,240.7z"/>
</svg>
