<?xml version="1.0" encoding="utf-8"?>
<!-- Generator: Adobe Illustrator 21.0.0, SVG Export Plug-In . SVG Version: 6.00 Build 0)  -->
<svg version="1.1" id="Layer_1" xmlns="http://www.w3.org/2000/svg" xmlns:xlink="http://www.w3.org/1999/xlink" x="0px" y="0px"
	 viewBox="0 0 400 54" style="enable-background:new 0 0 400 54;" xml:space="preserve">
<style type="text/css">
	.st0{fill:#FFFFFF;}
</style>
<g>
	<path class="st0" d="M312.4,0h-10.6c1.5,0.9,3.3,1.5,5.3,1.5C309,1.5,310.8,0.9,312.4,0z M186.4,24.5c-3.5,0-5.1-2.6-5.1-7.7V0
		h-17.1l-0.1,16.2c0,11.5,6.1,16.7,14.8,16.7c10.7,0,15-8.3,16.2-18.3l-1.1-0.2C193,21.1,190.3,24.5,186.4,24.5z M35.7,0H17.2
		l12.2,32.9h0.5l8.7-24.9L37.2,4L35.7,0z M313,24.6c-0.7-0.7-1.2-1.7-1.5-2.9c-0.7-2.3-0.5-4.2-0.5-4.2s0-0.3,0-0.9
		c0.1-1.3,0.2-2.5,0.5-3.7c0.7-3.3,2.5-7.4,6.7-9.1l-2.8,0.5c-10.9,2.3-21.1,4.9-21.1,15.9c0,8.3,6.1,12.4,13.5,12.4
		c4.9,0,8.8-1.7,11.4-4.7C316.2,27.5,314.3,26.1,313,24.6z M126.2,21.1V0H109v21.1c0,6.7-0.3,8.1-3.9,10.6v0.2h25v-0.2
		C126.6,29.2,126.2,27.8,126.2,21.1z M345.8,27.8c-0.7,0.2-1.4,0.4-2.1,0.4c-3.9,0-4.7-3-4.7-8.1c0-7.5,0.1-14.3,0.1-20.1H322v16.1
		l0.2,6.1c0,0.3,0.2,1.9,0.2,2.1c1.1,5.3,4.9,8.5,12.1,8.5c4.7,0,9.2-2,11.3-4.9V27.8z M399.4,0h-17.9c0.4,3.6,0.3,6.5,0.3,6.5
		c0,9.9-1.2,16.5-3.7,19.5c-1.7,2.2-3.7,2.2-5.2,1.7c-0.5-0.2-1.1-0.4-1.6-0.8c-0.7-0.5-1.1-0.9-1.1-0.9s3.5,6.9,10,6.9
		c11.1,0,19.7-10.4,19.7-26.5C399.9,4.1,399.7,2,399.4,0z M345.8,27.8L345.8,27.8C345.8,27.8,345.8,27.8,345.8,27.8L345.8,27.8z
		 M96.6,21.1V0H79.3v21.1c0,6.7-0.3,8.1-3.8,10.6v0.2h25v-0.2C96.8,29.2,96.6,27.8,96.6,21.1z M153.9,21.1V0h-17.1v21.1
		c0,6.7-0.3,8.1-3.9,10.6v0.2h25v-0.2C154.4,29.2,153.9,27.8,153.9,21.1z M67.6,0H50.3l11.3,32.9h0.5l8.4-23.8L69,4.5L67.6,0z
		 M366.5,43.2V0h-17.1v43.2c0,6.7-0.3,8.1-3.9,10.6V54h25.5v-0.2C367.1,51.3,366.5,49.9,366.5,43.2z M278.2,24.3
		c-8.5,0-13.7-7.7-13.7-20.9c0,0,0-1.3,0.1-3.1c0-0.1,0-0.2,0-0.3H248c-0.7,2.5-1,5.1-1,7.9c0,15.6,10.5,25,23.2,25
		c10.9,0,18.7-6.1,20.7-17.5l-0.6-0.2C287.9,21.7,283.4,24.3,278.2,24.3z M287.4,0h-13.3c1.7,1.5,4,2.5,6.6,2.5S285.6,1.5,287.4,0z
		 M239.2,0h-15.5c-1.3,1.1-2.9,2.3-4.8,3.3v1.3C231.2,6.2,236.7,3.1,239.2,0z M228.9,24.5c-8.5,0-14-7.3-14-19.7V2.6c0,0,0-0.3,0-1
		c0-0.5,0-1.1,0.1-1.6h-16.8c-0.5,2.2-0.7,4.5-0.7,7c0,16.4,10.8,25.9,23.8,25.9c11.5,0,19.1-6.9,21.3-17.9l-0.6-0.2
		C239.2,21.7,234.4,24.5,228.9,24.5z"/>
</g>
</svg>
