<?xml version="1.0" encoding="utf-8"?>
<!-- Generator: Adobe Illustrator 22.1.0, SVG Export Plug-In . SVG Version: 6.00 Build 0)  -->
<svg version="1.1" id="Layer_1" xmlns="http://www.w3.org/2000/svg" xmlns:xlink="http://www.w3.org/1999/xlink" x="0px" y="0px"
	 width="600px" height="145.3px" viewBox="0 0 600 145.3" style="enable-background:new 0 0 600 145.3;" xml:space="preserve">
<style type="text/css">
	.st0{fill:#444444;}
</style>
<g>
	<g>
		<g>
			<path class="st0" d="M217.8,28.4c8.3,0,14.7-6.3,14.7-14.2c0-8-6.3-14.2-14.7-14.2s-14.5,6.2-14.5,14.2
				C203.3,22.1,209.5,28.4,217.8,28.4z"/>
			<path class="st0" d="M230.8,96V37.3h-32.4v0.3c5.7,3.8,6.7,6,6.7,16.5V96c0,10-0.5,12.1-5.9,15.9v0.3h37.5v-0.3
				C231.5,108.1,230.8,106,230.8,96z"/>
			<path class="st0" d="M47,46.6l-6.5-18.2l-1.7-4.7c-1.1-3.2-1.8-5.9-1.8-8.5c0-3.6,1.7-6.3,5.3-8.6V6.3H0v0.3
				c4.8,3.6,7.1,7.7,10.3,16.6l33.6,90.4h0.8l13-37.4l-2.1-5.9L47,46.6z"/>
			<path class="st0" d="M88.6,23.7c-1.1-3.2-1.7-5.7-1.7-8.2c0-3.8,1.8-6.5,5.7-8.9V6.3H50.8v0.3c4.8,3.6,7.1,7.7,10.3,16.6
				l5.3,15.1l2.1,6.5l23.7,68.8H93l12.6-35.7l-2.2-6.9L88.6,23.7z"/>
			<path class="st0" d="M144.7,96V65.9V55.2v-9.4V6.3h-33v0.3c5.7,3.5,7.1,6,7.1,16.5V96c0,10-0.5,12.1-5.7,15.9v0.3h37.5v-0.3
				C145.1,108.1,144.7,106,144.7,96z"/>
			<path class="st0" d="M189.1,96V59.6c0-13.6-6.7-23.7-21.2-23.7c-7.1,0-13.1,2.7-17.4,7.7c13.6,0,12.9,15.4,12.9,15.4v37
				c0,10-0.5,12.1-5.9,15.9v0.3H195v-0.3C189.7,108.1,189.1,106,189.1,96z"/>
			<polygon class="st0" points="291,33.6 277.5,33.6 277.5,37.3 290.3,37.3 			"/>
			<path class="st0" d="M279.5,101.1c-5.3,0-7.7-3.9-7.7-11.6V50.6V37.3v-3.8v-5.2v-21h-1.5c-5.1,15.3-17.1,25.1-30.8,28.3v1.8h6.8
				L246,88.6c0,17.2,9.1,25.1,22.2,25.1c16,0,22.5-12.4,24.3-27.4l-1.7-0.3C289.4,96,285.3,101.1,279.5,101.1z"/>
			<path class="st0" d="M417.2,100.7c-12.8,0-20.6-11.5-20.6-31.3c0,0,0-1.9,0.1-4.7c0.3-5.5,1-10.3,2.3-14.4
				c2-6.8,5.6-13.2,12.1-14.5c-0.4,0-0.7,0-1.1,0c-21.5,0-39.6,15.6-39.6,40.4c0,23.4,15.7,37.5,34.8,37.5c16.3,0,28-9.2,31.1-26.2
				l-0.9-0.3C431.8,96.9,425.1,100.7,417.2,100.7z"/>
			<path class="st0" d="M406.5,53.8c0,7.9,6.2,14.2,14.5,14.2s14.7-6.3,14.7-14.2c0-8-6.3-14.2-14.7-14.2S406.5,45.8,406.5,53.8z"/>
			<path class="st0" d="M460.5,66.5c8.3,0,14.7-6.3,14.7-14.2c0-8-6.3-14.2-14.7-14.2c-8.3,0-14.5,6.2-14.5,14.2
				C446,60.2,452.2,66.5,460.5,66.5z"/>
			<path class="st0" d="M469.5,101.2c-1-1.1-1.8-2.5-2.3-4.4c-1.1-3.4-0.7-6.3-0.7-6.3s0-0.5,0-1.4c0.1-2,0.3-3.8,0.7-5.5
				c1.1-4.9,3.7-11.1,10.1-13.7l-4.2,0.8c-16.3,3.5-31.6,7.4-31.6,23.9c0,12.4,9.2,18.6,20.3,18.6c7.3,0,13.2-2.6,17.1-7
				C474.3,105.5,471.4,103.5,469.5,101.2z"/>
			<path class="st0" d="M518.7,106c-1.1,0.3-2.1,0.6-3.2,0.6c-5.9,0-7.1-4.5-7.1-12.1c0-12.7,0.2-23.9,0.2-33.4
				c0-18.7-12.7-25.2-33.9-25.2c-1.6,0-3.1,0.1-4.6,0.2c14.1,1,12.9,15.4,12.9,15.4v17.4v2.7v16.8l0.3,9.2c0,0.5,0.3,2.9,0.3,3.2
				c1.7,8,7.4,12.8,18.1,12.8c7.1,0,13.8-3,16.9-7.3V106H518.7z"/>
			<path class="st0" d="M343.3,101c-12.8,0-21-10.9-21-29.6v-3.2c0,0,0-0.5,0-1.5c0.2-7.2,0.9-13.5,2.2-18.3
				c1.5-6.2,2.8-11.8,6.1-12.6c-19.6,0.5-34.5,15.2-34.5,39c0,24.6,16.2,38.9,35.7,38.9c17.2,0,28.7-10.4,32-26.9l-0.9-0.3
				C358.7,96.9,351.5,101,343.3,101z"/>
			<path class="st0" d="M549.7,129.1v-9.2l0,0V37.3h-32.4v0.3c5.7,3.8,6.7,6,6.7,16.5v75c0,10-0.5,12.1-5.9,15.9v0.3h38.2V145
				C550.6,141.3,549.7,139.1,549.7,129.1z"/>
			<path class="st0" d="M572,35.8c-9.4,0-16.7,10.1-16.7,10.1c5.5-1.5,9.3,0.2,11.9,3.3c1.6,1.8,2.8,4.4,3.7,7.7
				c2.3,8,1.8,17.1,1.8,17.1c0,14.9-1.8,24.8-5.6,29.2c-2.6,3.3-5.5,3.3-7.8,2.5c-0.8-0.3-1.6-0.6-2.4-1.2c-1-0.7-1.7-1.3-1.7-1.3
				s5.2,10.3,15,10.3c16.6,0,29.6-15.6,29.6-39.8C600,50.5,587.6,35.8,572,35.8z"/>
			<path class="st0" d="M328.3,69.2c22.6-12.2,15.2-31.5,10-33.4l0,0c18.9,0,23.5,11.9,23.5,20.3c0,0,0.6,19.4-33.5,15.1"/>
		</g>
	</g>
</g>
</svg>
