<?xml version="1.0" encoding="utf-8"?>
<!-- Generator: Adobe Illustrator 21.0.0, SVG Export Plug-In . SVG Version: 6.00 Build 0)  -->
<svg version="1.1" id="Layer_1" xmlns="http://www.w3.org/2000/svg" xmlns:xlink="http://www.w3.org/1999/xlink" x="0px" y="0px"
	 viewBox="0 0 400 44.3" style="enable-background:new 0 0 400 44.3;" xml:space="preserve">
<style type="text/css">
	.st0{fill:#FFFFFF;}
</style>
<g>
	<path class="st0" d="M112,23.9c-4.7,0-8.7,1.8-11.6,5.1c9.1,0,8.6,10.3,8.6,10.3v5h17.1v-4.6C126.1,30.7,121.6,23.9,112,23.9z
		 M197.9,44.3h17c0.1-4.7,0.6-8.9,1.5-12c1-4.1,1.9-7.9,4.1-8.4C209,24.2,200,31.7,197.9,44.3z M132.3,25.1c3.8,2.5,4.5,4,4.5,11
		v8.2h17.1V24.9h-21.6V25.1z M185.1,24.9h8.5l0.5-2.5h-9V24.9z M74.5,4.4c3.8,2.3,4.7,4,4.7,11v28.9h17.3V4.2h-22V4.4z M58,10.3
		c0-2.5,1.2-4.3,3.8-5.9V4.2H33.9v0.2c3.2,2.4,4.7,5.1,6.9,11.1l3.5,10.1l1.4,4.3l5,14.4H68l-8.9-28.5C58.4,13.7,58,12,58,10.3z
		 M159.7,23.7v1.2h4.5l-0.1,19.4h17.1V4.9h-1C176.9,15.1,168.9,21.6,159.7,23.7z M27,18.9l-1.1-3.1c-0.7-2.1-1.2-3.9-1.2-5.7
		c0-2.4,1.1-4.2,3.5-5.7V4.2H0v0.2c3.2,2.4,4.7,5.1,6.9,11.1l10.7,28.8h18.6l-4.8-13.2L27,18.9z M316.6,23.9c-1.1,0-2.1,0.1-3.1,0.1
		c9.4,0.7,8.6,10.3,8.6,10.3v10h17.1c0-1.2,0-2.4,0-3.6C339.2,28.3,330.7,23.9,316.6,23.9z M345,25.1c3.8,2.5,4.5,4,4.5,11v8.2h17.1
		V24.9H345V25.1z M381.5,23.9c-6.3,0-11.1,6.7-11.1,6.7c3.7-1,6.2,0.1,7.9,2.2c1.1,1.2,1.9,2.9,2.5,5.1c0.6,2.1,0.9,4.4,1.1,6.4
		h17.9C398.3,31.7,390.7,23.9,381.5,23.9z M145.2,0c-5.6,0-9.7,4.1-9.7,9.5c0,5.3,4.1,9.5,9.7,9.5c5.5,0,9.8-4.2,9.8-9.5
		C155.1,4.1,150.8,0,145.2,0z M307.1,25.4c-5.5,0-9.7,4.1-9.7,9.5c0,4.9,3.6,8.9,8.7,9.4h2c5-0.5,8.8-4.5,8.8-9.4
		C316.9,29.5,312.7,25.4,307.1,25.4z M273.4,23.9c-12.3,0-23,7.7-25.7,20.4h16.8c0-0.4,0-0.7,0-1.2c0.2-3.7,0.7-6.9,1.5-9.6
		c1.3-4.5,3.7-8.8,8.1-9.7H273.4z M280.8,26.4c-5.6,0-9.7,4.1-9.7,9.5c0,3.7,2,6.9,5.2,8.4h9c3.2-1.6,5.3-4.7,5.3-8.4
		C290.6,30.5,286.4,26.4,280.8,26.4z M225.6,23.9c3.2,1.2,7.7,12.3-3.7,20.4h15.9c3.6-3,3.5-6.9,3.5-6.9
		C241.3,31.8,238.2,23.9,225.6,23.9z"/>
</g>
</svg>
