<?xml version="1.0" encoding="utf-8"?>
<!-- Generator: Adobe Illustrator 18.1.1, SVG Export Plug-In . SVG Version: 6.00 Build 0)  -->
<!DOCTYPE svg PUBLIC "-//W3C//DTD SVG 1.1//EN" "http://www.w3.org/Graphics/SVG/1.1/DTD/svg11.dtd">
<svg version="1.1" id="Layer_1" xmlns="http://www.w3.org/2000/svg" xmlns:xlink="http://www.w3.org/1999/xlink" x="0px" y="0px"
	 width="400px" height="54px" viewBox="0 0 400 54" enable-background="new 0 0 400 54" xml:space="preserve">
<polygon fill-rule="evenodd" clip-rule="evenodd" fill="#FFFFFF" points="26.6,34.9 27,34.9 34.9,12.3 33.6,8.6 30.6,0 13.6,0 "/>
<path fill-rule="evenodd" clip-rule="evenodd" fill="#FFFFFF" d="M316.5,17.1c0.6-3,1.9-7.9,4.7-8.5l-1,0.2
	c-9.9,2.1-19.2,4.5-19.2,14.5c0,7.5,5.6,11.3,12.3,11.3c2.8,0,5.2-0.6,7.1-1.7c-2.5-1.9-3.6-5.9-4-8.8c-0.2-1-0.3-2.1-0.3-3.3l0-0.4
	l0,0c0-0.3,0-0.6,0-0.9l0,0c0,0,0-0.4,0.1-1C316.3,18,316.4,17.5,316.5,17.1z"/>
<polygon fill-rule="evenodd" clip-rule="evenodd" fill="#FFFFFF" points="55.9,34.9 56.4,34.9 64.1,12.9 62.7,9 59.9,0 43.9,0 "/>
<path fill-rule="evenodd" clip-rule="evenodd" fill="#FFFFFF" d="M105.6,5.9V0H89.9v24.1c0,6-0.3,7.3-3.5,9.6v0.2h22.7v-0.2
	c-3.3-2.3-3.6-3.6-3.6-9.6V6.8V5.9z"/>
<path fill-rule="evenodd" clip-rule="evenodd" fill="#FFFFFF" d="M117.5,1.7v22.4c0,6-0.3,7.3-3.6,9.6v0.2h22.7v-0.2
	c-3.2-2.3-3.6-3.6-3.6-9.6V2c0-0.7,0-1.4-0.1-2h-15.5C117.6,1,117.5,1.7,117.5,1.7z"/>
<path fill-rule="evenodd" clip-rule="evenodd" fill="#FFFFFF" d="M145.8,0v24.1c0,6-0.3,7.3-3.6,9.6v0.2h22.7v-0.2
	c-3.2-2.3-3.6-3.6-3.6-9.6V0H145.8z"/>
<path fill-rule="evenodd" clip-rule="evenodd" fill="#FFFFFF" d="M173.6,0l-0.1,19.6c0,10.4,5.5,15.2,13.5,15.2
	c9.7,0,13.7-7.5,14.8-16.6l-1-0.2c-0.9,6-3.4,9.2-6.9,9.2c-3.2,0-4.7-2.4-4.7-7.1V0H173.6z"/>
<path fill-rule="evenodd" clip-rule="evenodd" fill="#FFFFFF" d="M233.7,7.3h-11c0,0,0-3.3,0.5-7.3h-13.9c-1.6,3.2-2.5,7.1-2.5,11.3
	c0,14.9,9.8,23.5,21.6,23.5c10.5,0,17.4-6.3,19.4-16.3l-0.5-0.2c-2.6,6.3-7,8.8-11.9,8.8c-7.8,0-12.7-6.6-12.7-18h11h4.9h9.7
	c0-3.3-0.5-6.4-1.4-9.2h-13.3C233.7,2.1,233.7,4.5,233.7,7.3z"/>
<path fill-rule="evenodd" clip-rule="evenodd" fill="#FFFFFF" d="M257.8,0c-1.8,3.4-2.8,7.5-2.8,12.1c0,14.2,9.5,22.7,21.1,22.7
	c9.9,0,17-5.6,18.9-15.9l-0.5-0.2c-2.3,5.9-6.3,8.2-11.1,8.2c-7.8,0-12.5-7-12.5-19c0-2.9,0.2-5.6,0.6-8H257.8z"/>
<path fill-rule="evenodd" clip-rule="evenodd" fill="#FFFFFF" d="M278.5,0C278.5,0,278.5,0,278.5,0c0,4.5,3.4,8.2,7.7,8.8l1.1,0
	c4.4-0.5,8.2-3.4,8.6-8.8H278.5z"/>
<path fill-rule="evenodd" clip-rule="evenodd" fill="#FFFFFF" d="M304.4,0c0.8,3.5,3.8,6.2,7.4,6.7l1.1,0c3.7-0.4,7.1-2.6,8.2-6.7
	H304.4z"/>
<path fill-rule="evenodd" clip-rule="evenodd" fill="#FFFFFF" d="M326.1,7.6v1.6v3v7.2c0,0,0.2,2.6,0.2,5.7c0,0,0,0,0-0.1
	c0,0.3,0.2,1.7,0.2,1.9c1,4.9,4.5,7.8,11,7.8c4.3,0,8.3-1.8,10.3-4.4v-0.2c-0.6,0.2-1.3,0.4-1.9,0.4c-3.6,0-4.3-2.7-4.3-7.3
	c0-7.7,0.1-14.5,0.1-20.3c0-1.1-0.1-2-0.2-3h-15.3V7.6z"/>
<path fill-rule="evenodd" clip-rule="evenodd" fill="#FFFFFF" d="M369.5,44.2V32.9v-7.7V0h-15.6v44.2c0,6-0.3,7.3-3.6,9.6V54h23.2
	v-0.2C370,51.6,369.5,50.2,369.5,44.2z"/>
<path fill-rule="evenodd" clip-rule="evenodd" fill="#FFFFFF" d="M382.2,0c1.5,5.1,1.3,10.8,1.3,10.8c0,16.1-4.2,21.2-8,22.5
	c1.8,1,4,1.5,6.5,1.5c10.1,0,18-9.4,18-24.1c0-4.1-0.6-7.7-1.7-10.8H382.2z"/>
</svg>
