<?xml version="1.0" encoding="utf-8"?>
<!-- Generator: Adobe Illustrator 18.1.1, SVG Export Plug-In . SVG Version: 6.00 Build 0)  -->
<!DOCTYPE svg PUBLIC "-//W3C//DTD SVG 1.1//EN" "http://www.w3.org/Graphics/SVG/1.1/DTD/svg11.dtd">
<svg version="1.1" id="Layer_1" xmlns="http://www.w3.org/2000/svg" xmlns:xlink="http://www.w3.org/1999/xlink" x="0px" y="0px"
	 width="400px" height="44.3px" viewBox="0 0 400 44.3" enable-background="new 0 0 400 44.3" xml:space="preserve">
<polygon fill-rule="evenodd" clip-rule="evenodd" fill="#FFFFFF" points="200.8,21 192.6,21 192.6,23.3 200.3,23.3 "/>
<path fill-rule="evenodd" clip-rule="evenodd" fill="#FFFFFF" d="M153.5,17.9c5,0,8.9-3.8,8.9-8.6c0-4.9-3.8-8.6-8.9-8.6
	c-5,0-8.8,3.8-8.8,8.6C144.7,14,148.4,17.9,153.5,17.9z"/>
<path fill-rule="evenodd" clip-rule="evenodd" fill="#FFFFFF" d="M287.4,25.9c-4.9,0-8.8,3.9-8.8,8.8c0,4.5,3.4,8.2,7.7,8.7l1.1,0
	c4.6-0.5,8.7-3.8,8.7-9.7C295.6,29.4,291.9,25.9,287.4,25.9z"/>
<path fill-rule="evenodd" clip-rule="evenodd" fill="#FFFFFF" d="M312.9,24c-4.8,0-8.7,3.9-8.7,8.7c0,4.4,3.3,8.1,7.6,8.6l1.1,0
	c4.6-0.5,8.5-3.7,8.6-9.5C321,27.5,317.4,24,312.9,24z"/>
<path fill-rule="evenodd" clip-rule="evenodd" fill="#FFFFFF" d="M6.2,14.8l11,29.6H34l-0.3-1L23.6,15c-0.6-1.9-1.1-3.6-1.1-5.1
	c0-2.2,1-3.8,3.2-5.2V4.5H0v0.2C2.9,6.9,4.3,9.3,6.2,14.8z"/>
<path fill-rule="evenodd" clip-rule="evenodd" fill="#FFFFFF" d="M70.5,6.5c1.3,1.2,2,2.6,2.2,4.2c0.9,3.2,1.1,7.9-0.9,14.9l3.4-9.6
	c2-5.7,4.3-9.2,7.5-11.3V4.5h-15C67.7,4.5,69.1,4.9,70.5,6.5z"/>
<path fill-rule="evenodd" clip-rule="evenodd" fill="#FFFFFF" d="M62.7,43.7l-9-28.7c-0.6-1.9-1-3.5-1-4.9c0-2.3,1.1-3.9,3.5-5.4
	V4.5H30.8v0.2c2.9,2.2,4.3,4.7,6.2,10.1l3.2,9.2l1.3,3.9l5.7,16.5h15.7L62.7,43.7z"/>
<path fill-rule="evenodd" clip-rule="evenodd" fill="#FFFFFF" d="M89.9,10.2v34.2h15.7v-2.8v-0.9v-6.5v-4V0h-20v0.2
	C89.1,2.3,89.9,3.8,89.9,10.2z"/>
<path fill-rule="evenodd" clip-rule="evenodd" fill="#FFFFFF" d="M120.3,22.4c-3.6,0-6.7,1.1-9.2,3.3c7-1.2,6.5,10.7,6.5,10.7v8
	h15.6v-7.6C133.1,28.5,129.1,22.4,120.3,22.4z"/>
<path fill-rule="evenodd" clip-rule="evenodd" fill="#FFFFFF" d="M141.7,23.5c3.5,2.3,4,3.7,4,10v10.9h15.6V23.3h-19.6V23.5z"/>
<path fill-rule="evenodd" clip-rule="evenodd" fill="#FFFFFF" d="M169.5,22.2v1.1h4.1l-0.1,21.1h15.6V24.5h0v-4.8h0V5h-0.9
	C185.1,14.3,177.9,20.3,169.5,22.2z"/>
<path fill-rule="evenodd" clip-rule="evenodd" fill="#FFFFFF" d="M230,22.4c0.5,0.2,3.7,2.3,3.7,19.6h-11c0,0,0.1-18.7,6.1-19.6
	c-11.4,0-21.2,8.6-21.9,22h15.8c0-0.2,0-0.3,0-0.5h11h4.9h9.7C248.3,32.2,242.4,22.9,230,22.4z"/>
<path fill-rule="evenodd" clip-rule="evenodd" fill="#FFFFFF" d="M255,44.3h15.8c0-0.5,0-1.1,0-1.6c0-8.2,1.7-14.7,4.9-17.4
	c1-1.1,2.1-2.1,3.4-2.9c0,0,0,0-0.1,0C266.7,22.4,256.2,30.8,255,44.3z"/>
<path fill-rule="evenodd" clip-rule="evenodd" fill="#FFFFFF" d="M322.2,22.4c1.3,1.3,2.3,2.9,3,4.7c0.6,1.3,0.9,3,0.9,4.8v10.5V44
	v0.4h15.5c0-2.4,0-4.6,0-6.7C341.6,26.7,334.4,22.6,322.2,22.4z"/>
<path fill-rule="evenodd" clip-rule="evenodd" fill="#FFFFFF" d="M349.9,23.5c3.5,2.3,4,3.7,4,10v10.9h15.6V33.9v-7.1v-3.5h-19.6
	V23.5z"/>
<path fill-rule="evenodd" clip-rule="evenodd" fill="#FFFFFF" d="M383,22.4c-4.2,0-7.7,1.7-10.1,4.5c9.7-1.3,10.5,13.2,10.6,17.5
	H400C399.6,30.8,392.2,22.4,383,22.4z"/>
</svg>
