<?xml version="1.0" encoding="utf-8"?>
<!-- Generator: Adobe Illustrator 18.1.1, SVG Export Plug-In . SVG Version: 6.00 Build 0)  -->
<!DOCTYPE svg PUBLIC "-//W3C//DTD SVG 1.1//EN" "http://www.w3.org/Graphics/SVG/1.1/DTD/svg11.dtd">
<svg version="1.1" id="Layer_1" xmlns="http://www.w3.org/2000/svg" xmlns:xlink="http://www.w3.org/1999/xlink" x="0px" y="0px"
	 width="400px" height="88.7px" viewBox="0 0 400 88.7" enable-background="new 0 0 400 88.7" xml:space="preserve">
<g>
	<g>
		<g>
			<polygon fill-rule="evenodd" clip-rule="evenodd" points="200.8,21 192.6,21 192.6,23.3 200.3,23.3 			"/>
			<path fill-rule="evenodd" clip-rule="evenodd" d="M200.7,52.8c-0.9,6-3.4,9.2-6.9,9.2c-3.2,0-4.7-2.4-4.7-7.1V24.5h0v-4.8h0V5
				h-0.9c-3.1,9.3-10.4,15.2-18.7,17.1v1.1h4.1l-0.2,31.1c0,10.4,5.5,15.2,13.5,15.2c9.7,0,13.7-7.5,14.8-16.6L200.7,52.8z"/>
		</g>
		<path fill-rule="evenodd" clip-rule="evenodd" d="M161.4,58.8V23.3h-19.6v0.2c3.5,2.3,4,3.7,4,10v25.4c0,6-0.3,7.3-3.6,9.6v0.2
			h22.7v-0.2C161.7,66.2,161.4,64.9,161.4,58.8z"/>
		<path fill-rule="evenodd" clip-rule="evenodd" d="M153.5,17.9c5,0,8.9-3.8,8.9-8.6c0-4.9-3.9-8.6-8.9-8.6c-5,0-8.8,3.8-8.8,8.6
			C144.7,14,148.4,17.9,153.5,17.9z"/>
		<path fill-rule="evenodd" clip-rule="evenodd" d="M283.3,61.7c-7.8,0-12.5-7-12.5-19c0-8.2,1.7-14.7,4.9-17.4
			c1-1.1,2.1-2.1,3.4-2.9c0,0,0,0-0.1,0c-13,0-24,9.4-24,24.5c0,14.2,9.5,22.7,21.1,22.7c9.9,0,17-5.6,18.9-15.9l-0.6-0.2
			C292.1,59.4,288,61.7,283.3,61.7z"/>
		<path fill-rule="evenodd" clip-rule="evenodd" d="M287.4,25.9c-4.9,0-8.8,3.9-8.8,8.8c0,4.5,3.4,8.2,7.7,8.7l1.1,0
			c4.6-0.5,8.7-3.8,8.7-9.7C295.6,29.4,291.9,25.9,287.4,25.9z"/>
		<path fill-rule="evenodd" clip-rule="evenodd" d="M312.9,24c-4.8,0-8.7,3.9-8.7,8.7c0,4.4,3.3,8.1,7.6,8.6l1.1,0
			c4.6-0.5,8.5-3.7,8.6-9.5C321,27.5,317.4,24,312.9,24z"/>
		<path fill-rule="evenodd" clip-rule="evenodd" d="M369.5,78.9V67.6v-7.7v-26v-7.1v-3.5h-19.6v0.2c3.5,2.3,4,3.7,4,10v45.4
			c0,6-0.3,7.3-3.6,9.6v0.2h23.2v-0.2C370,86.3,369.5,84.9,369.5,78.9z"/>
		<path fill-rule="evenodd" clip-rule="evenodd" d="M383,22.4c-4.2,0-7.7,1.7-10.1,4.5c11.3-1.5,10.6,18.7,10.6,18.7
			c0,16.1-4.2,21.2-8,22.5c1.8,1,4,1.5,6.5,1.5c10.1,0,18-9.4,18-24.1C400,31.2,392.5,22.4,383,22.4z"/>
		<path fill-rule="evenodd" clip-rule="evenodd" d="M53.7,15c-0.6-1.9-1-3.5-1-4.9c0-2.3,1.1-3.9,3.5-5.4V4.5H30.8v0.2
			c2.9,2.2,4.3,4.7,6.2,10.1l3.2,9.2l1.3,3.9l14.4,41.7h0.5l7.7-21.9l-1.4-3.9L53.7,15z"/>
		<path fill-rule="evenodd" clip-rule="evenodd" d="M23.6,15c-0.6-1.9-1.1-3.6-1.1-5.1c0-2.2,1-3.8,3.2-5.2V4.5H0v0.2
			c2.9,2.2,4.3,4.7,6.2,10.1l20.4,54.8H27L34.9,47l-1.2-3.7L23.6,15z"/>
		<path fill-rule="evenodd" clip-rule="evenodd" d="M70.5,6.5c1.3,1.2,2,2.6,2.2,4.2c0.9,3.2,1.1,7.9-0.9,14.9l3.4-9.6
			c2-5.7,4.3-9.2,7.5-11.3V4.5h-15C67.7,4.5,69.1,4.9,70.5,6.5z"/>
		<path fill-rule="evenodd" clip-rule="evenodd" d="M133.1,58.8V36.7c0-8.2-4-14.4-12.8-14.4c-3.6,0-6.7,1.1-9.2,3.3
			c7-1.2,6.5,10.7,6.5,10.7v22.4c0,6-0.3,7.3-3.6,9.6v0.2h22.7v-0.2C133.5,66.2,133.1,64.9,133.1,58.8z"/>
		<path fill-rule="evenodd" clip-rule="evenodd" d="M105.6,58.8V41.5v-0.9v-6.5v-4V0h-20v0.2c3.5,2.1,4.3,3.7,4.3,10v48.7
			c0,6-0.3,7.3-3.5,9.6v0.2h22.7v-0.2C105.9,66.2,105.6,64.9,105.6,58.8z"/>
		<path fill-rule="evenodd" clip-rule="evenodd" d="M316.5,51.8c0.6-3,1.9-7.9,4.7-8.5l-1,0.2C310.2,45.6,301,48,301,58
			c0,7.5,5.6,11.3,12.3,11.3c2.8,0,5.2-0.6,7.1-1.7c-2.5-1.9-3.6-5.9-4-8.8c-0.2-1-0.3-2.1-0.3-3.3l0-0.4l0,0c0-0.3,0-0.6,0-0.9l0,0
			c0,0,0-0.4,0.1-1C316.3,52.7,316.4,52.2,316.5,51.8z"/>
		<path fill-rule="evenodd" clip-rule="evenodd" d="M341.5,57.9c0-7.7,0.1-14.5,0.1-20.3c0-11-7.2-15-19.3-15.3
			c1.3,1.3,2.3,2.9,3,4.7c0.6,1.3,0.9,3,0.9,4.8v10.5V44v3v7.2c0,0,0.2,2.6,0.2,5.7c0,0,0,0,0-0.1c0,0.3,0.2,1.7,0.2,1.9
			c1,4.9,4.5,7.8,11,7.8c4.3,0,8.3-1.8,10.3-4.4v-0.2c-0.6,0.2-1.3,0.4-1.9,0.4C342.2,65.2,341.5,62.5,341.5,57.9z"/>
		<path fill-rule="evenodd" clip-rule="evenodd" d="M235.5,61.9c-7.8,0-12.7-6.6-12.7-18h11h4.9h9.7c0-11.7-5.9-21-18.3-21.5
			c0.5,0.2,3.7,2.3,3.7,19.6h-11c0,0,0.1-18.7,6.1-19.6c-11.8,0-22,9.3-22,23.6c0,14.9,9.8,23.5,21.6,23.5
			c10.5,0,17.4-6.3,19.4-16.3l-0.5-0.2C244.8,59.4,240.4,61.9,235.5,61.9z"/>
	</g>
</g>
</svg>
