<?xml version="1.0" encoding="utf-8"?>
<!-- Generator: Adobe Illustrator 19.1.0, SVG Export Plug-In . SVG Version: 6.00 Build 0)  -->
<!DOCTYPE svg PUBLIC "-//W3C//DTD SVG 1.1//EN" "http://www.w3.org/Graphics/SVG/1.1/DTD/svg11.dtd">
<svg version="1.1" id="Layer_1" xmlns="http://www.w3.org/2000/svg" xmlns:xlink="http://www.w3.org/1999/xlink" x="0px" y="0px"
	 width="200px" height="200px" viewBox="0 0 200 200" enable-background="new 0 0 200 200" xml:space="preserve">
<g>
	<path fill="#FFFFFF" d="M38.8,88.4l1.1-0.6l7.7,2.3l0.6,1.1l-0.3,0.9l2.1,0.6l1.9-6.5l-2.1-0.6l-0.5,1.6l-1.1,0.6L45.5,87l0.4-1.4
		l4.5-1.8l2.1,0.6l1.5-4.9l-2.2-0.7l-0.6,2l-4.6,1.9c0.3-2.5-0.6-4.1-2.7-4.7c-2.6-0.8-4.5,0.7-5.6,4.4l-1.9,6.3l2.1,0.6L38.8,88.4z
		 M40.3,83c0.7-2.2,1.6-2.9,2.8-2.5c1.1,0.3,1.6,1.4,0.9,3.6l-0.7,2.3l-3.7-1.1L40.3,83z"/>
	<polygon fill="#FFFFFF" points="46.7,68.4 47.9,68.1 54.7,72.5 54.9,73.7 53.3,76.3 55.1,77.5 60.8,68.7 59,67.5 57.3,70.1 
		56.1,70.4 49.3,66 49.1,64.7 50.8,62.1 48.9,60.9 43.2,69.8 45,71 	"/>
	<path fill="#FFFFFF" d="M55.2,57l1.3,0.1l5.3,6.1l-0.1,1.2l-1.1,0.9l1.4,1.7l4.6-3.9c3.8-3.2,3.9-7.4,1.3-10.5
		c-2.7-3.1-6.8-3.6-10.5-0.3l-4.6,3.9l1.4,1.7L55.2,57z M58.7,54c2.6-2.2,5.3-1.7,7.1,0.4c1.8,2.1,1.9,4.8-0.7,7.1l-1,0.9l-6.4-7.5
		L58.7,54z"/>
	<polygon fill="#FFFFFF" points="72.3,44.8 73.5,45.2 76.8,52.6 76.4,53.8 73.5,55 74.4,57 84,52.7 83.1,50.7 80.3,52 79.1,51.5 
		75.8,44.2 76.2,43 79.1,41.7 78.1,39.7 68.6,44.1 69.5,46.1 	"/>
	<polygon fill="#FFFFFF" points="85.2,39.8 86.2,40.6 87.4,48.6 86.6,49.6 85.6,49.7 85.9,51.9 92,51 91.7,48.9 90.6,49 89.6,48.2 
		88.5,40.5 95.4,50.6 97.8,50.2 96.2,39.2 97,38.2 98,38 97.7,35.8 91.6,36.7 92,38.9 93,38.7 94,39.5 95,46.3 89,37.1 83.9,37.8 
		84.2,40 	"/>
	<path fill="#FFFFFF" d="M114.9,46.4l0.3-2.2l-6.2-0.9l-0.3,2.2l1.8,0.3l0.5,0.8l-0.1,0.8c-1.1,0.9-2.3,1.6-3.5,1.4
		c-2.6-0.4-3.6-2.8-3.3-5.6c0.4-2.8,1.9-4.8,4.6-4.5c1.8,0.2,2.9,1.9,3.2,3.4l1.8,0.2l0.7-4.9l-2.2-0.3l-0.1,0.6l-0.4,0.1
		c-0.5-0.8-1.7-1.4-2.7-1.6c-4-0.6-6.9,2.4-7.5,6.5c-0.6,4.1,1.5,7.8,5.2,8.3c1,0.1,2.4,0,3.5-1l0.4,0.4l-0.1,0.8l2.2,0.3l0.7-4.7
		l0.9-0.7L114.9,46.4z"/>
	<polygon fill="#FFFFFF" points="137.9,64 135.7,62.1 135.6,60.9 141.4,54.1 142.8,55.3 142.9,56.6 140.7,59.2 142.5,60.7 
		146.7,55.7 137,47.4 132.8,52.4 134.5,53.9 136.8,51.3 138,51.2 139.5,52.4 133.7,59.2 132.4,59.3 130.2,57.5 128.8,59.2 
		136.4,65.7 	"/>
	<polygon fill="#FFFFFF" points="148.5,62.7 141.8,67.1 140.5,66.8 140,65.9 138.1,67.2 141.5,72.4 143.4,71.2 142.8,70.3 143.1,69 
		145.8,67.3 148.8,71.9 146.1,73.7 144.8,73.4 144.3,72.5 142.4,73.7 145.8,79 147.7,77.7 147.1,76.9 147.4,75.6 154.1,71.2 
		155.4,71.5 155.9,72.4 157.8,71.1 154.4,65.9 152.5,67.1 153.1,68 152.8,69.3 150.6,70.7 147.6,66.1 149.8,64.6 151,64.9 
		151.6,65.8 153.5,64.6 150,59.4 148.2,60.6 148.8,61.4 	"/>
	<polygon fill="#FFFFFF" points="158,77.3 157.3,78.4 149.6,80.7 148.5,80.1 148,78.3 145.9,79 149.7,91.7 155,90.1 154.4,87.9 
		152,88.6 150.9,88 149.4,83.2 153.2,82 153.6,83.3 153,84.4 151.6,84.8 152.2,86.6 158.6,84.7 158,82.9 156.7,83.3 155.5,82.7 
		155.2,81.5 158.9,80.4 160.3,85.2 159.7,86.3 157.1,87 157.8,89.2 163.3,87.6 159.5,74.9 157.4,75.5 	"/>
	<polygon fill="#FFFFFF" points="41.2,115.8 49.9,113.6 50.3,115.5 49.7,116.6 46.3,117.4 46.9,119.6 53.2,118.1 50.2,105.7 
		43.8,107.3 44.4,109.5 47.7,108.7 48.8,109.3 49.3,111.2 40.6,113.3 39.5,112.7 38.8,109.9 36.7,110.5 39.1,120.2 41.2,119.7 
		40.5,116.9 	"/>
	<polygon fill="#FFFFFF" points="50.4,135.5 57.3,131.3 58.5,131.6 59.1,132.5 60.9,131.4 57.7,126 55.8,127.2 56.4,128.1 
		56.1,129.3 53.8,130.7 51,125.9 53.2,124.6 54.4,124.9 55,125.8 56.9,124.6 53.6,119.3 51.8,120.4 52.3,121.3 52,122.6 45.1,126.7 
		43.9,126.4 43.3,125.5 41.5,126.7 44.7,132 46.6,130.9 46,130 46.3,128.7 49.1,127.1 51.9,131.8 49.2,133.5 48,133.2 47.4,132.3 
		45.5,133.4 48.7,138.7 50.6,137.6 50.1,136.7 	"/>
	<polygon fill="#FFFFFF" points="66.6,139.6 68.9,141.6 70.4,140 62.6,133 61.1,134.6 63.4,136.7 63.5,137.9 58.1,143.9 56.8,144 
		54.5,141.9 53.1,143.5 60.9,150.6 62.3,149 60,146.9 60,145.6 65.4,139.6 	"/>
	<path fill="#FFFFFF" d="M78.2,144.3l-6-2.8l-0.9,2l0.9,0.4l0.4,1.2l-3.4,7.3l-1.2,0.4l-0.9-0.4l-0.9,2l6.1,2.9l0.9-2l-1.5-0.7
		l-0.4-1.2l1.2-2.6l1.4,0.6l1.1,4.7l-0.9,2l4.7,2.2l1-2.1l-1.9-0.9l-1.2-4.8c2.4,0.7,4.1,0,5.1-2C82.8,148.1,81.6,146,78.2,144.3z
		 M79.2,149.4c-0.5,1.1-1.6,1.4-3.7,0.4l-2.1-1l1.6-3.5l2.1,1C79.3,147.3,79.8,148.3,79.2,149.4z"/>
	<path fill="#FFFFFF" d="M91.4,148.6l-5.9-0.9l-0.3,2.2l1.4,0.2l0.8,1l-1.2,8l-1,0.7l-1.4-0.2l-0.3,2.2l5.9,0.9
		c4.9,0.7,8.1-1.9,8.8-5.9S96.3,149.4,91.4,148.6z M95.4,156.4c-0.4,2.7-2.4,4.6-5.8,4.1l-1.4-0.2l1.5-9.7l1.4,0.2
		C94.4,151.3,95.8,153.7,95.4,156.4z"/>
	<polygon fill="#FFFFFF" points="128.5,143.7 127.6,141.7 121.8,144.4 122.8,146.4 124.7,145.5 125.5,145.9 128.6,154.5 
		128.1,154.8 123.9,147.5 120.9,148.9 123.6,156.8 123.1,157 118.6,149 118.9,148.1 120.8,147.3 119.8,145.3 114,148 114.9,150 
		116,149.4 122.1,159.9 125.9,158.2 123.2,150 127.7,157.4 131.3,155.7 127.4,144.2 	"/>
	<path fill="#FFFFFF" d="M145.3,142.1L134,136l-2.1,1.8l4.6,12l-1.2,1l1.5,1.7l4.7-4.1l-1.5-1.7l-0.8,0.7l-1.2,0l-0.7-1.7l3.7-3.3
		l1.6,0.9l-0.2,1.1l-0.8,0.7l1.5,1.7l4.9-4.3l-1.5-1.7L145.3,142.1z M136.5,143.7l-2-4.8l4.5,2.6L136.5,143.7z"/>
	<polygon fill="#FFFFFF" points="148.1,120.8 146.3,119.6 142.9,125 144.8,126.2 145.4,125.2 146.5,124.9 152.2,131.9 143.3,129.9 
		143.2,128.8 143.7,127.8 141.9,126.7 138.4,132.2 140.3,133.4 141.1,132.1 153.7,134.6 155.2,132.3 147.3,122.1 	"/>
	<polygon fill="#FFFFFF" points="158.1,108.9 157.5,111.1 159.9,111.7 160.5,112.8 159.2,117.7 155.4,116.7 155.7,115.4 
		156.8,114.8 158.2,115.2 158.7,113.3 152.2,111.6 151.7,113.5 153.1,113.8 153.8,114.9 153.4,116.2 149.7,115.2 151,110.4 
		152.1,109.7 154.7,110.4 155.3,108.2 149.7,106.7 146.3,119.5 148.4,120.1 148.9,118.3 150,117.7 157.8,119.7 158.4,120.8 
		157.9,122.6 160.1,123.2 163.5,110.3 	"/>
</g>
</svg>
