<?xml version="1.0" encoding="utf-8"?>
<!-- Generator: Adobe Illustrator 18.1.1, SVG Export Plug-In . SVG Version: 6.00 Build 0)  -->
<!DOCTYPE svg PUBLIC "-//W3C//DTD SVG 1.1//EN" "http://www.w3.org/Graphics/SVG/1.1/DTD/svg11.dtd">
<svg version="1.1" id="Layer_1" xmlns="http://www.w3.org/2000/svg" xmlns:xlink="http://www.w3.org/1999/xlink" x="0px" y="0px"
	 width="640px" height="359.6px" viewBox="0 0 640 359.6" enable-background="new 0 0 640 359.6" xml:space="preserve">
<rect id="XMLID_322_" x="0" y="0" fill="#DFE2E3" width="640" height="359.6"/>
<g id="XMLID_242_" opacity="0.5">
	<defs>
		<rect id="XMLID_243_" x="0" y="0" opacity="0.5" width="640" height="359.6"/>
	</defs>
	<clipPath id="XMLID_2_">
		<use xlink:href="#XMLID_243_"  overflow="visible"/>
	</clipPath>
	<path id="XMLID_320_" clip-path="url(#XMLID_2_)" fill="none" stroke="#FFFFFF" stroke-width="0.5" stroke-miterlimit="10" d="
		M70.9,414.7c50-50,64.1-35.9,114.1-85.9c50-50,35.9-64.1,85.9-114.1c50-50,64.1-35.9,114.1-85.9c50-50,35.9-64.1,85.9-114.1
		S535-21.2,585-71.2"/>
	<path id="XMLID_318_" clip-path="url(#XMLID_2_)" fill="none" stroke="#FFFFFF" stroke-width="0.5" stroke-miterlimit="10" d="
		M95.9,414.7c50-50,64.1-35.9,114.1-85.9c50-50,35.9-64.1,85.9-114.1c50-50,64.1-35.9,114.1-85.9c50-50,35.9-64.1,85.9-114.1
		S560-21.2,610-71.2"/>
	<path id="XMLID_316_" clip-path="url(#XMLID_2_)" fill="none" stroke="#FFFFFF" stroke-width="0.5" stroke-miterlimit="10" d="
		M120.9,414.7c50-50,64.1-35.9,114.1-85.9c50-50,35.9-64.1,85.9-114.1c50-50,64.1-35.9,114.1-85.9c50-50,35.9-64.1,85.9-114.1
		c50-50,64.1-35.9,114.1-85.9"/>
	<path id="XMLID_314_" clip-path="url(#XMLID_2_)" fill="none" stroke="#FFFFFF" stroke-width="0.5" stroke-miterlimit="10" d="
		M145.9,414.7c50-50,64.1-35.9,114.1-85.9c50-50,35.9-64.1,85.9-114.1c50-50,64.1-35.9,114.1-85.9c50-50,35.9-64.1,85.9-114.1
		c50-50,64.1-35.9,114.1-85.9"/>
	<path id="XMLID_312_" clip-path="url(#XMLID_2_)" fill="none" stroke="#FFFFFF" stroke-width="0.5" stroke-miterlimit="10" d="
		M170.9,414.7c50-50,64.1-35.9,114.1-85.9c50-50,35.9-64.1,85.9-114.1c50-50,64.1-35.9,114.1-85.9c50-50,35.9-64.1,85.9-114.1
		c50-50,64.1-35.9,114.1-85.9"/>
	<path id="XMLID_310_" clip-path="url(#XMLID_2_)" fill="none" stroke="#FFFFFF" stroke-width="0.5" stroke-miterlimit="10" d="
		M195.9,414.7c50-50,64.1-35.9,114.1-85.9c50-50,35.9-64.1,85.9-114.1c50-50,64.1-35.9,114.1-85.9c50-50,35.9-64.1,85.9-114.1
		c50-50,64.1-35.9,114.1-85.9"/>
	<path id="XMLID_308_" clip-path="url(#XMLID_2_)" fill="none" stroke="#FFFFFF" stroke-width="0.5" stroke-miterlimit="10" d="
		M220.9,414.7c50-50,64.1-35.9,114.1-85.9c50-50,35.9-64.1,85.9-114.1c50-50,64.1-35.9,114.1-85.9c50-50,35.9-64.1,85.9-114.1
		S685-21.2,735-71.2"/>
	<path id="XMLID_306_" clip-path="url(#XMLID_2_)" fill="none" stroke="#FFFFFF" stroke-width="0.5" stroke-miterlimit="10" d="
		M245.9,414.7c50-50,64.1-35.9,114.1-85.9c50-50,35.9-64.1,85.9-114.1c50-50,64.1-35.9,114.1-85.9c50-50,35.9-64.1,85.9-114.1
		S710-21.2,760-71.2"/>
	<path id="XMLID_304_" clip-path="url(#XMLID_2_)" fill="none" stroke="#FFFFFF" stroke-width="0.5" stroke-miterlimit="10" d="
		M270.9,414.7c50-50,64.1-35.9,114.1-85.9c50-50,35.9-64.1,85.9-114.1c50-50,64.1-35.9,114.1-85.9c50-50,35.9-64.1,85.9-114.1
		S735-21.2,785-71.2"/>
	<path id="XMLID_302_" clip-path="url(#XMLID_2_)" fill="none" stroke="#FFFFFF" stroke-width="0.5" stroke-miterlimit="10" d="
		M295.9,414.7c50-50,64.1-35.9,114.1-85.9c50-50,35.9-64.1,85.9-114.1c50-50,64.1-35.9,114.1-85.9c50-50,35.9-64.1,85.9-114.1
		S760-21.2,810-71.2"/>
	<path id="XMLID_300_" clip-path="url(#XMLID_2_)" fill="none" stroke="#FFFFFF" stroke-width="0.5" stroke-miterlimit="10" d="
		M320.9,414.7c50-50,64.1-35.9,114.1-85.9c50-50,35.9-64.1,85.9-114.1c50-50,64.1-35.9,114.1-85.9c50-50,35.9-64.1,85.9-114.1
		S785-21.2,835-71.2"/>
	<path id="XMLID_298_" clip-path="url(#XMLID_2_)" fill="none" stroke="#FFFFFF" stroke-width="0.5" stroke-miterlimit="10" d="
		M345.9,414.7c50-50,64.1-35.9,114.1-85.9c50-50,35.9-64.1,85.9-114.1c50-50,64.1-35.9,114.1-85.9c50-50,35.9-64.1,85.9-114.1
		S810-21.2,860-71.2"/>
	<path id="XMLID_296_" clip-path="url(#XMLID_2_)" fill="none" stroke="#FFFFFF" stroke-width="0.5" stroke-miterlimit="10" d="
		M370.9,414.7c50-50,64.1-35.9,114.1-85.9c50-50,35.9-64.1,85.9-114.1c50-50,64.1-35.9,114.1-85.9c50-50,35.9-64.1,85.9-114.1
		S835-21.2,885-71.2"/>
	<path id="XMLID_294_" clip-path="url(#XMLID_2_)" fill="none" stroke="#FFFFFF" stroke-width="0.5" stroke-miterlimit="10" d="
		M395.9,414.7c50-50,64.1-35.9,114.1-85.9c50-50,35.9-64.1,85.9-114.1c50-50,64.1-35.9,114.1-85.9c50-50,35.9-64.1,85.9-114.1
		S860-21.2,910-71.2"/>
	<path id="XMLID_292_" clip-path="url(#XMLID_2_)" fill="none" stroke="#FFFFFF" stroke-width="0.5" stroke-miterlimit="10" d="
		M420.9,414.7c50-50,64.1-35.9,114.1-85.9c50-50,35.9-64.1,85.9-114.1c50-50,64.1-35.9,114.1-85.9c50-50,35.9-64.1,85.9-114.1
		S885-21.2,935-71.2"/>
	<path id="XMLID_290_" clip-path="url(#XMLID_2_)" fill="none" stroke="#FFFFFF" stroke-width="0.5" stroke-miterlimit="10" d="
		M445.9,414.7c50-50,64.1-35.9,114.1-85.9c50-50,35.9-64.1,85.9-114.1c50-50,64.1-35.9,114.1-85.9c50-50,35.9-64.1,85.9-114.1
		S910-21.2,960-71.2"/>
	<path id="XMLID_288_" clip-path="url(#XMLID_2_)" fill="none" stroke="#FFFFFF" stroke-width="0.5" stroke-miterlimit="10" d="
		M470.9,414.7c50-50,64.1-35.9,114.1-85.9c50-50,35.9-64.1,85.9-114.1c50-50,64.1-35.9,114.1-85.9c50-50,35.9-64.1,85.9-114.1
		S935-21.2,985-71.2"/>
	<path id="XMLID_286_" clip-path="url(#XMLID_2_)" fill="none" stroke="#FFFFFF" stroke-width="0.5" stroke-miterlimit="10" d="
		M495.9,414.7c50-50,64.1-35.9,114.1-85.9c50-50,35.9-64.1,85.9-114.1c50-50,64.1-35.9,114.1-85.9c50-50,35.9-64.1,85.9-114.1
		S960-21.2,1010-71.2"/>
	<path id="XMLID_284_" clip-path="url(#XMLID_2_)" fill="none" stroke="#FFFFFF" stroke-width="0.5" stroke-miterlimit="10" d="
		M520.9,414.7c50-50,64.1-35.9,114.1-85.9c50-50,35.9-64.1,85.9-114.1c50-50,64.1-35.9,114.1-85.9c50-50,35.9-64.1,85.9-114.1
		S985-21.2,1035-71.2"/>
	<path id="XMLID_282_" clip-path="url(#XMLID_2_)" fill="none" stroke="#FFFFFF" stroke-width="0.5" stroke-miterlimit="10" d="
		M545.9,414.7c50-50,64.1-35.9,114.1-85.9c50-50,35.9-64.1,85.9-114.1c50-50,64.1-35.9,114.1-85.9c50-50,35.9-64.1,85.9-114.1
		S1010-21.2,1060-71.2"/>
	<path id="XMLID_280_" clip-path="url(#XMLID_2_)" fill="none" stroke="#FFFFFF" stroke-width="0.5" stroke-miterlimit="10" d="
		M45.9,414.7c50-50,64.1-35.9,114.1-85.9c50-50,35.9-64.1,85.9-114.1c50-50,64.1-35.9,114.1-85.9c50-50,35.9-64.1,85.9-114.1
		S510-21.2,560-71.2"/>
	<path id="XMLID_278_" clip-path="url(#XMLID_2_)" fill="none" stroke="#FFFFFF" stroke-width="0.5" stroke-miterlimit="10" d="
		M20.9,414.7c50-50,64.1-35.9,114.1-85.9c50-50,35.9-64.1,85.9-114.1c50-50,64.1-35.9,114.1-85.9c50-50,35.9-64.1,85.9-114.1
		S485-21.2,535-71.2"/>
	<path id="XMLID_276_" clip-path="url(#XMLID_2_)" fill="none" stroke="#FFFFFF" stroke-width="0.5" stroke-miterlimit="10" d="
		M-4.1,414.7c50-50,64.1-35.9,114.1-85.9c50-50,35.9-64.1,85.9-114.1c50-50,64.1-35.9,114.1-85.9c50-50,35.9-64.1,85.9-114.1
		S460-21.2,510-71.2"/>
	<path id="XMLID_274_" clip-path="url(#XMLID_2_)" fill="none" stroke="#FFFFFF" stroke-width="0.5" stroke-miterlimit="10" d="
		M-29.1,414.7c50-50,64.1-35.9,114.1-85.9c50-50,35.9-64.1,85.9-114.1c50-50,64.1-35.9,114.1-85.9c50-50,35.9-64.1,85.9-114.1
		S435-21.2,485-71.2"/>
	<path id="XMLID_272_" clip-path="url(#XMLID_2_)" fill="none" stroke="#FFFFFF" stroke-width="0.5" stroke-miterlimit="10" d="
		M-54.1,414.7c50-50,64.1-35.9,114.1-85.9c50-50,35.9-64.1,85.9-114.1c50-50,64.1-35.9,114.1-85.9c50-50,35.9-64.1,85.9-114.1
		S410-21.2,460-71.2"/>
	<path id="XMLID_270_" clip-path="url(#XMLID_2_)" fill="none" stroke="#FFFFFF" stroke-width="0.5" stroke-miterlimit="10" d="
		M-79.1,414.7c50-50,64.1-35.9,114.1-85.9c50-50,35.9-64.1,85.9-114.1c50-50,64.1-35.9,114.1-85.9c50-50,35.9-64.1,85.9-114.1
		S385-21.2,435-71.2"/>
	<path id="XMLID_268_" clip-path="url(#XMLID_2_)" fill="none" stroke="#FFFFFF" stroke-width="0.5" stroke-miterlimit="10" d="
		M-104.1,414.7c50-50,64.1-35.9,114.1-85.9c50-50,35.9-64.1,85.9-114.1c50-50,64.1-35.9,114.1-85.9c50-50,35.9-64.1,85.9-114.1
		S360-21.2,410-71.2"/>
	<path id="XMLID_266_" clip-path="url(#XMLID_2_)" fill="none" stroke="#FFFFFF" stroke-width="0.5" stroke-miterlimit="10" d="
		M-129.1,414.7c50-50,64.1-35.9,114.1-85.9c50-50,35.9-64.1,85.9-114.1c50-50,64.1-35.9,114.1-85.9c50-50,35.9-64.1,85.9-114.1
		S335-21.2,385-71.2"/>
	<path id="XMLID_264_" clip-path="url(#XMLID_2_)" fill="none" stroke="#FFFFFF" stroke-width="0.5" stroke-miterlimit="10" d="
		M-154.1,414.7c50-50,64.1-35.9,114.1-85.9c50-50,35.9-64.1,85.9-114.1c50-50,64.1-35.9,114.1-85.9c50-50,35.9-64.1,85.9-114.1
		S310-21.2,360-71.2"/>
	<path id="XMLID_262_" clip-path="url(#XMLID_2_)" fill="none" stroke="#FFFFFF" stroke-width="0.5" stroke-miterlimit="10" d="
		M-179.1,414.7c50-50,64.1-35.9,114.1-85.9c50-50,35.9-64.1,85.9-114.1c50-50,64.1-35.9,114.1-85.9c50-50,35.9-64.1,85.9-114.1
		S285-21.2,335-71.2"/>
	<path id="XMLID_260_" clip-path="url(#XMLID_2_)" fill="none" stroke="#FFFFFF" stroke-width="0.5" stroke-miterlimit="10" d="
		M-204.1,414.7c50-50,64.1-35.9,114.1-85.9c50-50,35.9-64.1,85.9-114.1c50-50,64.1-35.9,114.1-85.9c50-50,35.9-64.1,85.9-114.1
		S260-21.2,310-71.2"/>
	<path id="XMLID_258_" clip-path="url(#XMLID_2_)" fill="none" stroke="#FFFFFF" stroke-width="0.5" stroke-miterlimit="10" d="
		M-229.1,414.7c50-50,64.1-35.9,114.1-85.9c50-50,35.9-64.1,85.9-114.1c50-50,64.1-35.9,114.1-85.9c50-50,35.9-64.1,85.9-114.1
		S235-21.2,285-71.2"/>
	<path id="XMLID_256_" clip-path="url(#XMLID_2_)" fill="none" stroke="#FFFFFF" stroke-width="0.5" stroke-miterlimit="10" d="
		M-254.1,414.7c50-50,64.1-35.9,114.1-85.9c50-50,35.9-64.1,85.9-114.1c50-50,64.1-35.9,114.1-85.9c50-50,35.9-64.1,85.9-114.1
		S210-21.2,260-71.2"/>
	<path id="XMLID_254_" clip-path="url(#XMLID_2_)" fill="none" stroke="#FFFFFF" stroke-width="0.5" stroke-miterlimit="10" d="
		M-279.1,414.7c50-50,64.1-35.9,114.1-85.9c50-50,35.9-64.1,85.9-114.1c50-50,64.1-35.9,114.1-85.9c50-50,35.9-64.1,85.9-114.1
		S185-21.2,235-71.2"/>
	<path id="XMLID_252_" clip-path="url(#XMLID_2_)" fill="none" stroke="#FFFFFF" stroke-width="0.5" stroke-miterlimit="10" d="
		M-304.1,414.7c50-50,64.1-35.9,114.1-85.9c50-50,35.9-64.1,85.9-114.1c50-50,64.1-35.9,114.1-85.9c50-50,35.9-64.1,85.9-114.1
		S160-21.2,210-71.2"/>
	<path id="XMLID_250_" clip-path="url(#XMLID_2_)" fill="none" stroke="#FFFFFF" stroke-width="0.5" stroke-miterlimit="10" d="
		M-329.1,414.7c50-50,64.1-35.9,114.1-85.9c50-50,35.9-64.1,85.9-114.1c50-50,64.1-35.9,114.1-85.9c50-50,35.9-64.1,85.9-114.1
		S135-21.2,185-71.2"/>
	<path id="XMLID_248_" clip-path="url(#XMLID_2_)" fill="none" stroke="#FFFFFF" stroke-width="0.5" stroke-miterlimit="10" d="
		M-354.1,414.7c50-50,64.1-35.9,114.1-85.9c50-50,35.9-64.1,85.9-114.1c50-50,64.1-35.9,114.1-85.9c50-50,35.9-64.1,85.9-114.1
		S110-21.2,160-71.2"/>
	<path id="XMLID_246_" clip-path="url(#XMLID_2_)" fill="none" stroke="#FFFFFF" stroke-width="0.5" stroke-miterlimit="10" d="
		M-379.1,414.7c50-50,64.1-35.9,114.1-85.9c50-50,35.9-64.1,85.9-114.1c50-50,64.1-35.9,114.1-85.9c50-50,35.9-64.1,85.9-114.1
		S85-21.2,135-71.2"/>
	<path id="XMLID_244_" clip-path="url(#XMLID_2_)" fill="none" stroke="#FFFFFF" stroke-width="0.5" stroke-miterlimit="10" d="
		M-404.1,414.7c50-50,64.1-35.9,114.1-85.9c50-50,35.9-64.1,85.9-114.1c50-50,64.1-35.9,114.1-85.9c50-50,35.9-64.1,85.9-114.1
		S60-21.2,110-71.2"/>
</g>
</svg>
